<svg width="354" height="354" viewBox="0 0 354 354" fill="none" xmlns="http://www.w3.org/2000/svg">
<rect width="354" height="354" rx="24" fill="white"/>
<g clip-path="url(#clip0_9_2)">
<path d="M136.851 21.3539C141.692 16.8199 149.2 16.882 154.04 21.416C171.167 37.5023 187.239 54.8309 202.256 73.5879C209.082 64.6441 216.838 54.893 225.216 46.943C230.118 42.3469 237.688 42.3469 242.591 47.0051C264.061 67.5012 282.243 94.5809 295.026 120.294C307.623 145.635 316 171.534 316 189.795C316 269.046 254.071 336 177 336C99.0607 336 38 268.984 38 189.732C38 165.882 49.0455 136.753 66.1723 107.934C83.4853 78.6809 107.934 48.1852 136.851 21.3539ZM178.055 276.375C193.754 276.375 207.654 272.027 220.748 263.332C246.872 245.072 253.884 208.552 238.185 179.857C235.392 174.267 228.256 173.895 224.223 178.615L208.585 196.813C204.49 201.533 197.105 201.409 193.258 196.502C183.019 183.459 164.713 160.168 154.288 146.939C150.379 141.97 142.933 141.908 138.961 146.877C117.987 173.273 107.438 189.919 107.438 208.614C107.5 251.159 138.899 276.375 178.055 276.375Z" fill="black"/>
</g>
<defs>
<clipPath id="clip0_9_2">
<rect width="278" height="318" fill="white" transform="translate(38 18)"/>
</clipPath>
</defs>
</svg>
